<?xml version="1.0" encoding="utf-8"?>
<!-- Generator: Adobe Illustrator 20.1.0, SVG Export Plug-In . SVG Version: 6.00 Build 0)  -->
<svg version="1.1" id="레이어_1" xmlns="http://www.w3.org/2000/svg" xmlns:xlink="http://www.w3.org/1999/xlink" x="0px"
	 y="0px" viewBox="0 0 41.3 46" style="enable-background:new 0 0 41.3 46;" xml:space="preserve">
<style type="text/css">
	.st0{fill:#fff;}
</style>
<g>
	<g>
		<path class="st0" d="M38.6,9.4L23.4,0.8C22.6,0.3,21.6,0,20.7,0s-1.9,0.3-2.8,0.8L2.8,9.4C1,10.4,0,12.3,0,14.3v17.4
			c0,2,1,3.9,2.8,4.8l15.1,8.7c0.9,0.5,1.8,0.8,2.8,0.8s1.9-0.3,2.8-0.8l15.1-8.7c1.7-1,2.8-2.8,2.8-4.8V14.3
			C41.3,12.3,40.3,10.5,38.6,9.4z M38.6,30.5c0,1.7-0.9,3.4-2.4,4.2l-13.2,7.6c-0.7,0.4-1.6,0.7-2.4,0.7s-1.6-0.2-2.4-0.7L5.1,34.7
			c-1.5-0.8-2.4-2.5-2.4-4.2V15.4c0-1.7,0.9-3.4,2.4-4.2l13.2-7.5C19,3.2,19.8,3,20.7,3s1.7,0.2,2.4,0.7l13.2,7.5
			c1.5,0.9,2.4,2.5,2.4,4.2V30.5z"/>
	</g>
	<g>
		<path d="M36.2,11.2L23.1,3.7C22.3,3.2,21.5,3,20.7,3S19,3.2,18.3,3.7L5.1,11.2c-1.5,0.8-2.4,2.5-2.4,4.2v15.1
			c0,1.7,0.9,3.4,2.4,4.2l13.2,7.6c0.8,0.4,1.6,0.7,2.4,0.7s1.7-0.2,2.4-0.7l13.2-7.6c1.5-0.8,2.4-2.5,2.4-4.2V15.4
			C38.6,13.7,37.7,12.1,36.2,11.2z"/>
	</g>
</g>
</svg>
