<?xml version="1.0" encoding="utf-8"?>
<!-- Generator: Adobe Illustrator 20.1.0, SVG Export Plug-In . SVG Version: 6.00 Build 0)  -->
<svg version="1.1" id="Layer_1" xmlns="http://www.w3.org/2000/svg" xmlns:xlink="http://www.w3.org/1999/xlink" x="0px" y="0px"
	 viewBox="0 0 405.7 74" style="enable-background:new 0 0 405.7 74;" xml:space="preserve">
<style type="text/css">
	.st0{fill:#FFFFFF;}
</style>
<path class="st0" d="M398.6,74h-10h-8.1h-52.3h-0.2H7c-4.6,0-8-4.3-6.8-8.8L15.9,7.4C17.1,3,21,0,25.6,0h330.6h14h10
	c4.5,0,8.5,3,9.7,7.4l15.7,57.8C406.6,69.7,403.3,74,398.6,74z"/>
<g>
	<path d="M370.1,0H25.6c-4.5,0-8.5,3-9.7,7.4L0.2,65.3C-1,69.7,2.4,74,7,74h320.9h0.2h60.4c3.5,0,6.2-2.4,6.9-5.5
		c0.3-1.1,0.3-2.1-0.1-3.3L379.8,7.5C378.6,3.1,374.6,0,370.1,0z M336.6,65.3C336.6,65.4,336.6,65.4,336.6,65.3c0,0.2,0,0.3,0,0.5
		c0,0.1,0,0.2,0,0.2c-0.1,1.5-0.8,2.8-1.8,3.9c0,0,0,0,0,0c-0.2,0.3-0.5,0.5-0.8,0.7c0,0,0,0,0,0c-0.3,0.2-0.6,0.4-0.9,0.6
		c0,0-0.1,0-0.1,0c-0.3,0.2-0.6,0.3-0.9,0.4c0,0-0.1,0-0.1,0c-0.3,0.1-0.7,0.2-1,0.3H7c-1.6,0-3-0.6-4-1.9c-1-1.2-1.3-2.7-0.9-4.2
		L17.8,8c0.9-3.5,4.1-6,7.7-6h286.8c0.5,0,0.9,0,1.4,0.1c0.5,0.1,0.9,0.2,1.3,0.3c0,0,0,0,0.1,0c0.4,0.1,0.8,0.3,1.2,0.5
		c0,0,0,0,0,0c0.8,0.4,1.6,0.9,2.2,1.5c0,0,0,0,0,0c0.3,0.3,0.6,0.6,0.9,0.9c0,0,0.1,0.1,0.1,0.1c0.3,0.3,0.5,0.6,0.7,1
		c0,0.1,0.1,0.1,0.1,0.2c0.2,0.3,0.4,0.7,0.6,1.1c0,0,0,0.1,0.1,0.2c0.1,0.1,0.1,0.3,0.1,0.4c0,0.1,0.1,0.2,0.1,0.4
		c0.1,0.2,0.1,0.4,0.2,0.5l14.8,54.8c0.1,0.2,0.1,0.5,0.2,0.7c0,0.1,0,0.2,0,0.3C336.5,65.1,336.6,65.2,336.6,65.3z"/>
	<path d="M398.6,74h-6c4.6,0,8-4.3,6.8-8.7L383.7,7.4C382.6,3,378.6,0,374.1,0h6c4.5,0,8.5,3.1,9.7,7.5l15.7,57.8
		C406.6,69.7,403.3,74,398.6,74z"/>
</g>
</svg>
