<?xml version="1.0" encoding="utf-8"?>
<!-- Generator: Adobe Illustrator 20.1.0, SVG Export Plug-In . SVG Version: 6.00 Build 0)  -->
<svg version="1.1" id="Layer_1" xmlns="http://www.w3.org/2000/svg" xmlns:xlink="http://www.w3.org/1999/xlink" x="0px" y="0px"
	 viewBox="0 0 405 74" style="enable-background:new 0 0 405 74;" xml:space="preserve">
<style type="text/css">
	.st0{fill:none;}
</style>
<g>
	<g>
		<path d="M370.1,74.1H25.6c-4.5,0-8.5-3-9.7-7.4L0.2,8.8C-1,4.4,2.4,0,7,0h381.6c4.6,0,8,4.4,6.8,8.8l-15.7,57.9
			C378.6,71.1,374.6,74.1,370.1,74.1z"/>
	</g>
	<g>
		<path class="st0" d="M317,72.2h-5c4.3,0,8-2.9,9.2-7L336,10.5c1.1-4.2-1.9-8.4-6.3-8.4"/>
	</g>
	<g>
		<g>
			<path d="M398.3,0.2h-6c4.6,0,8,4.3,6.8,8.8l-15.7,57.9c-1.2,4.4-5.1,7.4-9.7,7.4h6c4.5,0,8.5-3.1,9.7-7.4l15.7-57.8
				C406.3,4.5,402.9,0.2,398.3,0.2z"/>
		</g>
	</g>
</g>
</svg>
