<?xml version="1.0" encoding="utf-8"?>
<!-- Generator: Adobe Illustrator 20.1.0, SVG Export Plug-In . SVG Version: 6.00 Build 0)  -->
<svg version="1.1" id="Layer_1" xmlns="http://www.w3.org/2000/svg" xmlns:xlink="http://www.w3.org/1999/xlink" x="0px" y="0px"
	 viewBox="0 0 405 74" style="enable-background:new 0 0 405 74;" xml:space="preserve">
<style type="text/css">
	.st0{fill:none;}
</style>
<g>
	<g>
		<path d="M370.1,0H25.6c-4.5,0-8.5,3-9.7,7.4L0.2,65.3C-1,69.7,2.4,74.1,7,74.1h381.6c4.6,0,8-4.4,6.8-8.8L379.8,7.4
			C378.6,3,374.6,0,370.1,0z"/>
	</g>
	<g>
		<path class="st0" d="M317,2.2h-5c4.3,0,8,2.8,9.2,6.9L336,63.7c1.1,4.2-1.9,8.4-6.3,8.4"/>
	</g>
	<g>
		<g>
			<path d="M398.3,74.2h-6c4.6,0,8-4.4,6.8-8.9L383.4,7.5c-1.2-4.4-5.1-7.3-9.7-7.3h6c4.5,0,8.5,3,9.7,7.3l15.7,57.9
				C406.3,69.8,402.9,74.2,398.3,74.2z"/>
		</g>
	</g>
</g>
</svg>
