<?xml version="1.0" encoding="utf-8"?>
<!-- Generator: Adobe Illustrator 20.1.0, SVG Export Plug-In . SVG Version: 6.00 Build 0)  -->
<svg version="1.1" id="Layer_1" xmlns="http://www.w3.org/2000/svg" xmlns:xlink="http://www.w3.org/1999/xlink" x="0px" y="0px"
	 viewBox="0 0 24 24" style="enable-background:new 0 0 24 24;" xml:space="preserve">
<path d="M20,0c-2.2,0-4,1.8-4,4c0,0.3,0,0.6,0.1,0.8L7,9.4C6.3,8.5,5.2,8,4,8c-2.2,0-4,1.8-4,4s1.8,4,4,4c1.2,0,2.3-0.5,3-1.4
	l9.1,4.6C16,19.4,16,19.7,16,20c0,2.2,1.8,4,4,4s4-1.8,4-4s-1.8-4-4-4c-1.2,0-2.3,0.5-3,1.4l-9.1-4.6C8,12.6,8,12.3,8,12
	s0-0.6-0.1-0.8L17,6.6C17.7,7.5,18.8,8,20,8c2.2,0,4-1.8,4-4S22.2,0,20,0z"/>
</svg>
