<?xml version="1.0" encoding="utf-8"?>
<!-- Generator: Adobe Illustrator 20.1.0, SVG Export Plug-In . SVG Version: 6.00 Build 0)  -->
<svg version="1.1" id="Layer_1" xmlns="http://www.w3.org/2000/svg" xmlns:xlink="http://www.w3.org/1999/xlink" x="0px" y="0px"
	 viewBox="0 0 43 47.8" style="enable-background:new 0 0 43 47.8;" xml:space="preserve">
<g>
	<g>
		<path d="M21.5,2c0.7,0,1.3,0.2,1.9,0.5l15.7,9.1c1.2,0.7,1.9,1.9,1.9,3.3V33c0,1.4-0.7,2.6-1.9,3.3l-15.7,9.1
			c-0.6,0.3-1.2,0.5-1.9,0.5c-0.7,0-1.3-0.2-1.9-0.5L3.9,36.3C2.7,35.6,2,34.4,2,33V14.8c0-1.4,0.7-2.6,1.9-3.3l15.7-9.1
			C20.2,2.1,20.8,2,21.5,2 M21.5,0c-1,0-2,0.3-2.9,0.8l-15.7,9c-1.8,1-2.9,3-2.9,5v18.1c0,2.1,1.1,4,2.9,5L18.6,47
			c0.9,0.5,1.9,0.8,2.9,0.8s2-0.3,2.9-0.8l15.7-9.1c1.8-1,2.9-3,2.9-5V14.8c0-2.1-1.1-4-2.9-5L24.4,0.7C23.5,0.2,22.5,0,21.5,0
			L21.5,0z"/>
	</g>
	<path d="M25.7,23.2c0.4,0.4,0.4,1.1,0,1.5l-6,5.5c-0.7,0.5-1.6,0-1.6-0.8V18.5c0-0.8,0.9-1.3,1.6-0.8L25.7,23.2z"/>
</g>
</svg>
