<?xml version="1.0" encoding="utf-8"?>
<!-- Generator: Adobe Illustrator 20.1.0, SVG Export Plug-In . SVG Version: 6.00 Build 0)  -->
<svg version="1.1" id="Layer_1" xmlns="http://www.w3.org/2000/svg" xmlns:xlink="http://www.w3.org/1999/xlink" x="0px" y="0px"
	 viewBox="0 0 50 50" style="enable-background:new 0 0 50 50;" xml:space="preserve">
<g>
	
		<image style="overflow:visible;opacity:0.6;enable-background:new    ;" width="68" height="72" xlink:href="61AF59F3.png"  transform="matrix(1 0 0 1 -9.3328 -10.8417)">
	</image>
	<path d="M24.7,3.3c0.7,0,1.3,0.2,1.9,0.5l15.7,9.1c1.2,0.7,1.9,1.9,1.9,3.3v18.1c0,1.4-0.7,2.6-1.9,3.3l-15.7,9.1
		c-0.6,0.3-1.2,0.5-1.9,0.5c-0.7,0-1.3-0.2-1.9-0.5L7.1,37.6c-1.2-0.7-1.9-1.9-1.9-3.3V16.1c0-1.4,0.7-2.6,1.9-3.3l15.7-9.1
		C23.4,3.4,24,3.3,24.7,3.3 M24.7,1.3c-1,0-2,0.3-2.9,0.8l-15.7,9c-1.8,1-2.9,3-2.9,5v18.1c0,2.1,1.1,4,2.9,5l15.7,9.1
		c0.9,0.5,1.9,0.8,2.9,0.8s2-0.3,2.9-0.8l15.7-9.1c1.8-1,2.9-3,2.9-5V16.1c0-2.1-1.1-4-2.9-5L27.6,2C26.7,1.5,25.7,1.3,24.7,1.3
		L24.7,1.3z"/>
</g>
<g>
	
		<image style="overflow:visible;opacity:0.6;enable-background:new    ;" width="52" height="42" xlink:href="61AF59F1.png"  transform="matrix(1 0 0 1 -1 4)">
	</image>
</g>
<g>
	<rect x="12.2" y="32.7" width="25" height="2"/>
	<rect x="12.2" y="27.7" width="25" height="2"/>
	<g>
		<rect x="27.2" y="21.7" width="10" height="2"/>
		<rect x="27.2" y="16.7" width="10" height="2"/>
	</g>
	<path d="M22.2,17.7v5h-8v-5H22.2 M22.2,15.7h-8c-1.1,0-2,0.9-2,2v5c0,1.1,0.9,2,2,2h8c1.1,0,2-0.9,2-2v-5
		C24.2,16.6,23.3,15.7,22.2,15.7L22.2,15.7z"/>
</g>
</svg>
