<?xml version="1.0" encoding="utf-8"?>
<!-- Generator: Adobe Illustrator 20.1.0, SVG Export Plug-In . SVG Version: 6.00 Build 0)  -->
<svg version="1.1" id="Layer_1" xmlns="http://www.w3.org/2000/svg" xmlns:xlink="http://www.w3.org/1999/xlink" x="0px" y="0px"
	 viewBox="0 0 65.2 109.4" style="enable-background:new 0 0 65.2 109.4;" xml:space="preserve">
<path d="M47.3,99c9.2-10.3-0.4-17.4-0.4-17.4c-3.9,5.1-2.3,12.6-1.2,16.2c-0.9-0.6-1.7-1.3-2.5-2l0,0c0,0-0.1,0-0.2-0.1
	c-1.8-1.5-3.5-3.1-5.2-4.7c9.5-10.4-0.3-17.6-0.3-17.6c-3.8,5-2.4,12.3-1.2,16c-2.9-3.1-5.5-6.6-7.8-10.3C41,71.6,33,60.4,33,60.4
	c-5.3,4-5.9,12.3-5.8,16.6c-0.7-1.2-1.3-2.3-1.9-3.5c-1.1-2.2-2.1-4.5-2.9-6.8c15.1-8.7,6-21.9,6-21.9c-5.8,4.1-7.2,12.4-7.4,17.7
	c-1.3-4.3-2.2-8.8-2.6-13.2c14.1-4,9.5-18.2,9.5-18.2c-5.5,2.1-8.5,8.9-9.9,13.6c-0.1-4.5,0.2-9.1,0.9-13.6
	c12.5-0.4,11.3-12.4,11.3-12.4c-5,0.6-8.6,5.5-10.6,9c1.1-5,2.8-10,5-14.7l0,0l0,0c0.1-0.3,0.3-0.6,0.4-0.9c7.2,0.7,8.3-6.7,8.3-6.7
	c-3.1-0.4-6.1,1.8-8,3.6c0,0,0,0-0.1,0c0.2-2.9-0.1-6.6-2.4-9c0,0-5.7,5.7,0.1,11.6c-0.1,0.1-0.1,0.1-0.1,0.1c0.1,0,0.2,0,0.3,0.1
	c0,0,0,0,0.1,0.1c-1.7,3.6-3.2,7.3-4.3,11.2c0-4.2-1-10.3-5.3-13.4c0,0-6.9,10,4.7,16.5c-0.8,3.4-1.4,6.9-1.7,10.5
	c-1-5.2-3.6-13.3-10-16.6c0,0-7.2,14.8,9.8,21c-0.1,3.6,0.1,7.2,0.6,10.7c-2.7-4.2-8.9-12.2-17-12.5c0,0-0.5,16.3,17.4,15.1
	c0.8,4.8,2.1,9.6,3.9,14.1c-3.6-3.9-9.9-9.4-17-8.9c0,0,1.5,16.1,18.8,13c0.2,0.5,0.5,1,0.7,1.5c1.4,2.8,3,5.5,4.7,8
	c-4.1-3-11.3-7-18.1-5c0,0,4.4,14.9,20.5,8.3c2,2.7,4.2,5.2,6.6,7.5c-4.6-1.8-11.2-3.4-16.5-0.6c0,0,7.2,13.1,20.8,4.5
	c6.7,5.6,14.3,9.8,22.4,12.6l1-1.4C58.8,105.8,52.8,102.8,47.3,99z"/>
</svg>
