<?xml version="1.0" encoding="utf-8"?>
<!-- Generator: Adobe Illustrator 20.1.0, SVG Export Plug-In . SVG Version: 6.00 Build 0)  -->
<svg version="1.1" id="Layer_1" xmlns="http://www.w3.org/2000/svg" xmlns:xlink="http://www.w3.org/1999/xlink" x="0px" y="0px"
	 viewBox="0 0 405.7 74" style="enable-background:new 0 0 405.7 74;" xml:space="preserve">
<style type="text/css">
	.st0{fill:#FFFFFF;}
</style>
<path class="st0" d="M398.6,74h-10h-8.1h-52.3h-0.2H7c-4.6,0-8-4.3-6.8-8.8L15.9,7.4C17.1,3,21,0,25.6,0h330.6h14h10
	c4.5,0,8.5,3,9.7,7.4l15.7,57.8C406.6,69.7,403.3,74,398.6,74z"/>
<g>
	<g>
		<path class="st0" d="M370.1,0H25.6c-4.5,0-8.5,3-9.7,7.4L0.2,65.3C-1,69.7,2.4,74,7,74h320.9h0.2h60.4c3.5,0,6.2-2.4,6.9-5.5
			c0.3-1.1,0.3-2.1-0.1-3.3L379.8,7.5C378.6,3.1,374.6,0,370.1,0z"/>
		<path d="M370.1,2c3.6,0,6.8,2.5,7.7,6l15.7,57.8c0.2,0.8,0.2,1.5,0,2.3c0,0,0,0,0,0.1c-0.5,2.3-2.5,3.9-4.9,3.9h-60.4h-0.2H7
			c-1.6,0-3.1-0.7-4-2c-0.9-1.2-1.2-2.8-0.8-4.2L17.8,7.9C18.8,4.4,22,2,25.6,2H370.1 M370.1,0H25.6c-4.5,0-8.5,3-9.7,7.4L0.2,65.3
			C-1,69.7,2.4,74,7,74h320.9h0.2h60.4c3.5,0,6.2-2.4,6.9-5.5c0.3-1.1,0.3-2.1-0.1-3.3L379.8,7.5C378.6,3.1,374.6,0,370.1,0L370.1,0
			z"/>
	</g>
	<path d="M398.6,74h-6c4.6,0,8-4.3,6.8-8.7L383.7,7.4C382.6,3,378.6,0,374.1,0h6c4.5,0,8.5,3.1,9.7,7.5l15.7,57.8
		C406.6,69.7,403.3,74,398.6,74z"/>
</g>
</svg>
