<?xml version="1.0" encoding="utf-8"?>
<!-- Generator: Adobe Illustrator 20.1.0, SVG Export Plug-In . SVG Version: 6.00 Build 0)  -->
<svg version="1.1" id="Layer_1" xmlns="http://www.w3.org/2000/svg" xmlns:xlink="http://www.w3.org/1999/xlink" x="0px" y="0px"
	 viewBox="0 0 405.7 74" style="enable-background:new 0 0 405.7 74;" xml:space="preserve">
<style type="text/css">
	.st0{fill:#FFFFFF;}
</style>
<path class="st0" d="M398.6,0h-10h-8.1h-52.3h-0.2H7C2.4,0-1,4.3,0.2,8.8l15.7,57.8C17.1,71,21,74,25.6,74h330.6h14h10
	c4.5,0,8.5-3,9.7-7.4l15.7-57.8C406.6,4.3,403.3,0,398.6,0z"/>
<g>
	<path d="M379.8,66.5l15.7-57.8c0.3-1.2,0.3-2.2,0.1-3.3c-0.6-3.1-3.4-5.5-6.9-5.5h-60.4h-0.2H7C2.4,0-1,4.3,0.2,8.7l15.7,57.9
		C17.1,71,21,74,25.6,74h344.5C374.6,74,378.6,70.9,379.8,66.5z M336.5,9.1c0,0.1,0,0.2,0,0.3c0,0.2-0.1,0.5-0.2,0.7l-14.8,54.8
		c0,0.2-0.1,0.4-0.2,0.5c0,0.1-0.1,0.2-0.1,0.4c0,0.1-0.1,0.3-0.1,0.4c0,0.1,0,0.1-0.1,0.2c-0.2,0.4-0.4,0.7-0.6,1.1
		c0,0.1-0.1,0.1-0.1,0.2c-0.2,0.3-0.5,0.7-0.7,1c0,0-0.1,0.1-0.1,0.1c-0.3,0.3-0.6,0.6-0.9,0.9c0,0,0,0,0,0
		c-0.7,0.6-1.4,1.1-2.2,1.5c0,0,0,0,0,0c-0.4,0.2-0.8,0.3-1.2,0.5c0,0,0,0-0.1,0c-0.4,0.1-0.9,0.2-1.3,0.3c-0.5,0.1-0.9,0.1-1.4,0.1
		H25.6c-3.6,0-6.8-2.5-7.7-6L2.2,8.1C1.8,6.6,2.1,5.1,3,3.9C4,2.6,5.4,2,7,2h323.9c0.4,0.1,0.7,0.2,1,0.3c0,0,0.1,0,0.1,0
		c0.3,0.1,0.6,0.3,0.9,0.4c0,0,0.1,0,0.1,0c0.3,0.2,0.6,0.4,0.9,0.6c0,0,0,0,0,0c0.3,0.2,0.5,0.5,0.8,0.7c0,0,0,0,0,0
		c1,1.1,1.6,2.4,1.8,3.9c0,0.1,0,0.2,0,0.2c0,0.1,0,0.3,0,0.4c0,0,0,0,0,0C336.6,8.8,336.5,8.9,336.5,9.1z"/>
	<path d="M398.6,0h-6c4.6,0,8,4.3,6.8,8.7l-15.7,57.9c-1.2,4.4-5.1,7.4-9.7,7.4h6c4.5,0,8.5-3.1,9.7-7.5l15.7-57.8
		C406.6,4.3,403.3,0,398.6,0z"/>
</g>
</svg>
