<?xml version="1.0" encoding="utf-8"?>
<!-- Generator: Adobe Illustrator 20.1.0, SVG Export Plug-In . SVG Version: 6.00 Build 0)  -->
<svg version="1.1" id="레이어_1" xmlns="http://www.w3.org/2000/svg" xmlns:xlink="http://www.w3.org/1999/xlink" x="0px"
	 y="0px" viewBox="0 0 32.1 35.6" style="enable-background:new 0 0 32.1 35.6;" xml:space="preserve">
<g>
	<g>
		<path d="M29.8,7.3L18.2,0.6C17.5,0.2,16.7,0,16,0c-0.7,0-1.5,0.2-2.2,0.6L2.2,7.3C0.8,8.1,0,9.5,0,11.1v13.5
			c0,1.5,0.8,3,2.2,3.7L13.8,35c0.7,0.4,1.4,0.6,2.2,0.6c0.8,0,1.5-0.2,2.2-0.6l11.7-6.7c1.3-0.8,2.2-2.2,2.2-3.7V11.1
			C32,9.5,31.2,8.1,29.8,7.3z M22,21.7l-2.1,2.1L16,19.9l-3.9,3.9L10,21.7l3.9-3.9L10,13.9l2.1-2.1l3.9,3.9l3.9-3.9l2.1,2.1
			l-3.9,3.9L22,21.7z"/>
	</g>
</g>
</svg>
