<?xml version="1.0" encoding="utf-8"?>
<!-- Generator: Adobe Illustrator 20.1.0, SVG Export Plug-In . SVG Version: 6.00 Build 0)  -->
<svg version="1.1" id="Layer_1" xmlns="http://www.w3.org/2000/svg" xmlns:xlink="http://www.w3.org/1999/xlink" x="0px" y="0px"
	 viewBox="0 0 43 47.8" style="enable-background:new 0 0 43 47.8;" xml:space="preserve">
<g>
	<g>
		<path d="M40.1,9.8L24.4,0.7C23.5,0.2,22.5,0,21.5,0s-2,0.3-2.9,0.8l-15.7,9c-1.8,1-2.9,3-2.9,5v18.1c0,2.1,1.1,4,2.9,5L18.6,47
			c0.9,0.5,1.9,0.8,2.9,0.8s2-0.3,2.9-0.8l15.7-9.1c1.8-1,2.9-3,2.9-5V14.8C43,12.8,41.9,10.8,40.1,9.8z M26.7,24.6l-6,5.5
			c-0.7,0.5-1.6,0-1.6-0.8V18.5c0-0.8,0.9-1.3,1.6-0.8l6,5.5C27.1,23.6,27.1,24.2,26.7,24.6z"/>
	</g>
</g>
</svg>
