<?xml version="1.0" encoding="utf-8"?>
<!-- Generator: Adobe Illustrator 20.1.0, SVG Export Plug-In . SVG Version: 6.00 Build 0)  -->
<svg version="1.1" id="Layer_1" xmlns="http://www.w3.org/2000/svg" xmlns:xlink="http://www.w3.org/1999/xlink" x="0px" y="0px"
	 viewBox="0 0 22 22" style="enable-background:new 0 0 22 22;" xml:space="preserve">
<path d="M11,0C4.9,0,0,4.9,0,11s4.9,11,11,11s11-4.9,11-11S17.1,0,11,0z M11,1.8c0.2,0,0.4,0.1,0.7,0.5c0.3,0.4,0.7,1,1,1.9
	C12.8,4.6,13,5,13.1,5.5H8.9C9,5,9.2,4.6,9.3,4.2c0.3-0.8,0.6-1.5,1-1.9C10.6,1.9,10.8,1.8,11,1.8z M8.1,2.3
	C7.9,2.7,7.7,3.1,7.6,3.6C7.4,4.2,7.2,4.8,7.1,5.5H3.7C4.8,4,6.3,2.9,8.1,2.3z M13.9,2.3c1.8,0.6,3.3,1.7,4.4,3.2H15
	c-0.2-0.7-0.3-1.4-0.5-1.9S14.1,2.7,13.9,2.3z M2.6,7.3h4.1c-0.1,0.9-0.2,1.8-0.2,2.8H1.9C2,9.1,2.2,8.2,2.6,7.3z M8.5,7.3h4.9
	c0.1,0.9,0.2,1.8,0.3,2.8H8.3C8.3,9.1,8.4,8.2,8.5,7.3z M15.3,7.3h4.1c0.4,0.9,0.6,1.8,0.7,2.8h-4.6C15.5,9.1,15.4,8.2,15.3,7.3z
	 M1.9,11.9h4.6c0,1,0.1,1.9,0.2,2.8H2.6C2.2,13.8,2,12.9,1.9,11.9z M8.3,11.9h5.4c0,1-0.1,1.9-0.3,2.8H8.5
	C8.4,13.8,8.3,12.9,8.3,11.9z M15.6,11.9h4.6c-0.1,1-0.3,1.9-0.7,2.8h-4.1C15.4,13.8,15.5,12.9,15.6,11.9z M3.7,16.5H7
	c0.2,0.7,0.3,1.4,0.5,1.9s0.3,0.9,0.5,1.3C6.3,19.1,4.8,18,3.7,16.5z M8.9,16.5h4.2c-0.1,0.5-0.3,0.9-0.4,1.3
	c-0.3,0.8-0.6,1.5-1,1.9c-0.3,0.4-0.6,0.5-0.7,0.5c-0.2,0-0.4-0.1-0.7-0.5s-0.7-1-1-1.9C9.1,17.4,9,17,8.9,16.5z M15,16.5h3.3
	c-1.1,1.5-2.6,2.6-4.4,3.2c0.2-0.4,0.4-0.8,0.5-1.3C14.7,17.9,14.9,17.2,15,16.5z"/>
</svg>
