<?xml version="1.0" encoding="utf-8"?>
<!-- Generator: Adobe Illustrator 20.1.0, SVG Export Plug-In . SVG Version: 6.00 Build 0)  -->
<svg version="1.1" id="Layer_1" xmlns="http://www.w3.org/2000/svg" xmlns:xlink="http://www.w3.org/1999/xlink" x="0px" y="0px"
	 viewBox="0 0 80 93.8" style="enable-background:new 0 0 80 93.8;" xml:space="preserve">
<path d="M78.1,40.6L78.1,40.6c-1.2-1.9-2.8-3.4-4.7-4.4L20.7,2.8c-1.4-1.1-3-2-4.8-2.4c-0.1,0-0.3-0.1-0.4-0.1
	c-0.2,0-0.3-0.1-0.5-0.1c-3-0.6-5.9-0.1-8.5,1.4C2.5,3.8,0,8.1,0,12.9v67.9c0,7.1,5.6,13,12.8,13h-0.1c3.2,0,6.1-1.2,8.4-3.1
	l53.2-33.1C79.9,54.1,81.7,46.4,78.1,40.6z M26,35.3l18.7,11.8L26,58.7V35.3z"/>
</svg>
