<?xml version="1.0" encoding="utf-8"?>
<!-- Generator: Adobe Illustrator 20.1.0, SVG Export Plug-In . SVG Version: 6.00 Build 0)  -->
<svg version="1.1" id="Layer_1" xmlns="http://www.w3.org/2000/svg" xmlns:xlink="http://www.w3.org/1999/xlink" x="0px" y="0px"
	 viewBox="0 0 22 22" style="enable-background:new 0 0 22 22;" xml:space="preserve">
<path d="M6.1,0C2.7,0,0,2.7,0,6.1v9.8C0,19.3,2.7,22,6.1,22h9.8c3.4,0,6.1-2.7,6.1-6.1V6.1C22,2.7,19.3,0,15.9,0H6.1z M18.3,2.4
	c0.7,0,1.2,0.5,1.2,1.2S19,4.9,18.3,4.9s-1.2-0.5-1.2-1.2S17.7,2.4,18.3,2.4z M11,4.9c3.4,0,6.1,2.7,6.1,6.1s-2.7,6.1-6.1,6.1
	S4.9,14.4,4.9,11S7.6,4.9,11,4.9z M11,7.3c-2,0-3.7,1.6-3.7,3.7s1.6,3.7,3.7,3.7s3.7-1.6,3.7-3.7S13,7.3,11,7.3z"/>
</svg>
