<?xml version="1.0" encoding="utf-8"?>
<!-- Generator: Adobe Illustrator 20.1.0, SVG Export Plug-In . SVG Version: 6.00 Build 0)  -->
<svg version="1.1" id="Layer_1" xmlns="http://www.w3.org/2000/svg" xmlns:xlink="http://www.w3.org/1999/xlink" x="0px" y="0px"
	 viewBox="0 0 43 47.8" style="enable-background:new 0 0 43 47.8;" xml:space="preserve">
<g>
	<g>
		<path d="M21.5,2c0.7,0,1.3,0.2,1.9,0.5l15.7,9.1c1.2,0.7,1.9,1.9,1.9,3.3V33c0,1.4-0.7,2.6-1.9,3.3l-15.7,9.1
			c-0.6,0.3-1.2,0.5-1.9,0.5c-0.7,0-1.3-0.2-1.9-0.5L3.9,36.3C2.7,35.6,2,34.4,2,33V14.8c0-1.4,0.7-2.6,1.9-3.3l15.7-9.1
			C20.2,2.1,20.8,2,21.5,2 M21.5,0c-1,0-2,0.3-2.9,0.8l-15.7,9c-1.8,1-2.9,3-2.9,5v18.1c0,2.1,1.1,4,2.9,5L18.6,47
			c0.9,0.5,1.9,0.8,2.9,0.8s2-0.3,2.9-0.8l15.7-9.1c1.8-1,2.9-3,2.9-5V14.8c0-2.1-1.1-4-2.9-5L24.4,0.7C23.5,0.2,22.5,0,21.5,0
			L21.5,0z"/>
	</g>
	<g>
		<path d="M27.3,14.7L27.3,14.7L27.3,14.7 M25.9,15.3v17.9l-11-4.8c-0.3-0.1-0.5-0.2-0.8-0.2H11v-8h3.1c0.3,0,0.5-0.1,0.8-0.2
			L25.9,15.3 M26.9,12.8c-0.1,0-0.3,0-0.4,0.1l-12.4,5.4H10c-0.6,0-1,0.4-1,1v10c0,0.6,0.4,1,1,1h4.1l12.4,5.4
			c0.1,0.1,0.3,0.1,0.4,0.1c0.5,0,1-0.4,1-1v-21C27.9,13.2,27.4,12.8,26.9,12.8L26.9,12.8z"/>
	</g>
	<path d="M30.9,28.4c-0.6,0-1-0.4-1-1s0.4-1,1-1c1.1,0,2-1.1,2-2.5s-0.9-2.5-2-2.5c-0.6,0-1-0.4-1-1s0.4-1,1-1c2.2,0,4,2,4,4.5
		C34.9,26.4,33.1,28.4,30.9,28.4z"/>
</g>
</svg>
