<?xml version="1.0" encoding="utf-8"?>
<!-- Generator: Adobe Illustrator 20.1.0, SVG Export Plug-In . SVG Version: 6.00 Build 0)  -->
<svg version="1.1" id="Layer_1" xmlns="http://www.w3.org/2000/svg" xmlns:xlink="http://www.w3.org/1999/xlink" x="0px" y="0px"
	 viewBox="0 0 100.9 100" style="enable-background:new 0 0 100.9 100;" xml:space="preserve">
<g>
	<path d="M28.3,21.8c6.1-4.7,13.8-7.5,22.1-7.5c8.4,0,16,2.8,22.2,7.5l9-11.1C73.1,4,62.3,0,50.5,0S27.9,4,19.3,10.7L28.3,21.8z"/>
	<path d="M84.5,13.1l-9,11.1c6.9,6.5,11.2,15.7,11.2,25.8c0,6.5-1.7,12.6-4.8,17.8L62,48.7l-9.3-20.9v31.7l19.7,18.9
		c-6.1,4.6-13.7,7.3-21.9,7.3S34.7,83,28.7,78.5l19.7-18.9V27.9l-9.3,20.9l-19.9,19c-3.1-5.2-4.8-11.3-4.8-17.8
		c0-10.2,4.3-19.3,11.2-25.8L16.5,13C6.4,22.2,0,35.4,0,50c0,27.6,22.6,50,50.5,50s50.4-22.4,50.4-50
		C100.9,35.4,94.6,22.2,84.5,13.1z"/>
</g>
</svg>
