<?xml version="1.0" encoding="utf-8"?>
<!-- Generator: Adobe Illustrator 20.1.0, SVG Export Plug-In . SVG Version: 6.00 Build 0)  -->
<svg version="1.1" id="Layer_1" xmlns="http://www.w3.org/2000/svg" xmlns:xlink="http://www.w3.org/1999/xlink" x="0px" y="0px"
	 viewBox="0 0 26 31.2" style="enable-background:new 0 0 26 31.2;" xml:space="preserve">
<style>
.st0{fill:#fff}
</style>
<path class="st0" d="M12.9,0C10.6,0,5.6,0.2,0.8,2.3C0.3,2.5,0,3,0,3.5v14.1c0,0.2,0.1,0.5,0.2,0.7c1,1.8,6.1,9.9,12.2,12.7
	c0.4,0.2,0.8,0.2,1.2,0c6-2.8,11.1-10.9,12.2-12.7c0.1-0.2,0.2-0.4,0.2-0.7V3.5c0-0.5-0.3-1-0.8-1.2C20.2,0.2,15.2,0,12.9,0z"/>
</svg>
