<svg width="33" height="33" viewBox="-4 -4 33 33" id="ic-25-gnb-dark-calendar-000000" y="363" xmlns="http://www.w3.org/2000/svg"><g fill="none" fill-rule="evenodd"><path d="M0 0h25v25H0z"/><path fill="currentColor" fill-opacity=".9" d="M1 5h23V1H1v4zm7.737 11.091v-1.444h.921c.764 0 1.291-.476 1.291-1.111-.007-.648-.553-1.087-1.291-1.087-.775 0-1.277.509-1.309 1.048H6.646C6.697 12.049 7.79 11.006 9.723 11c1.842-.007 2.993.953 3.011 2.275.02 1.234-.971 1.863-1.601 1.958v.102c.8.076 1.843.699 1.863 2.058C13.008 19.091 11.457 20 9.665 20c-2.022 0-3.134-1.17-3.165-2.524h1.678c.038.598.654 1.042 1.487 1.042.915.007 1.513-.501 1.507-1.22-.007-.686-.567-1.207-1.469-1.207h-.966zm5.363-3.477l2.052-1.455h1.825v8.676h-1.825v-6.877h-.089L14.1 14.337v-1.723zM1 24h23V7H1v17z"/></g></svg>