<svg xmlns="http://www.w3.org/2000/svg" width="26" height="26" viewBox="0 0 26 26">
    <g fill="none" fill-rule="evenodd">
        <g>
            <g>
                <g>
                    <g>
                        <g>
                            <path d="M18.004 20l-.001-12h-10v12h10.001zm-4.001-10h2v8h-2v-8zm-4 0h2v8h-2v-8zm0-6h6v2h-6V4z" transform="translate(-2584 -693) translate(2261 467) translate(0 203) translate(168 10) translate(155 13)"/>
                            <path fill="#FFF" fill-rule="nonzero" d="M6.003 20c0 1.103.897 2 2 2h10c1.103 0 2-.897 2-2V8h2V6h-4V4c0-1.103-.897-2-2-2h-6c-1.103 0-2 .897-2 2v2h-4v2h2v12zm4-16h6v2h-6V4zm-1 4h9l.001 12H8.003V8h1z" transform="translate(-2584 -693) translate(2261 467) translate(0 203) translate(168 10) translate(155 13)"/>
                            <path fill="#FFF" fill-rule="nonzero" d="M10.003 10h2v8h-2v-8zm4 0h2v8h-2v-8z" transform="translate(-2584 -693) translate(2261 467) translate(0 203) translate(168 10) translate(155 13)"/>
                        </g>
                    </g>
                </g>
            </g>
        </g>
    </g>
</svg>
