<svg xmlns="http://www.w3.org/2000/svg" width="26" height="26" viewBox="0 0 26 26">
    <g fill="none" fill-rule="evenodd">
        <g>
            <g>
                <g>
                    <g>
                        <g>
                            <path d="M0 0H26V26H0z" transform="translate(-2444 -693) translate(2261 467) translate(0 203) translate(168 10) translate(15 13)"/>
                            <path fill="#FFF" fill-rule="nonzero" d="M20.045 7.401c.378-.378.586-.88.586-1.414 0-.534-.208-1.036-.586-1.414l-1.586-1.586c-.378-.378-.88-.586-1.414-.586-.534 0-1.036.208-1.413.585L5 13.585V18h4.413L20.045 7.401zm-3-3l1.587 1.585-1.59 1.584-1.586-1.585 1.589-1.584zM7 16v-1.585l7.04-7.018 1.586 1.586L8.587 16H7zm-2 4h16v2H5v-2z" transform="translate(-2444 -693) translate(2261 467) translate(0 203) translate(168 10) translate(15 13)"/>
                        </g>
                    </g>
                </g>
            </g>
        </g>
    </g>
</svg>
