<svg xmlns="http://www.w3.org/2000/svg" viewBox="0 0 42 42">
    <path fill="none" fill-rule="evenodd" stroke="currentColor" stroke-linejoin="round" stroke-width="2" d="M27.235 8.849V15.94a6.226 6.226 0 0 1-2.376 4.898.749.749 0 0 0-.295.586v1.1c0 1.426.83 2.723 2.128 3.328l8.34 3.881c.538.337.907.896.962 1.538l.005.117c.002.07 0 .089 0 .108v4.03a.475.475 0 0 1-.476.474H6.483a.475.475 0 0 1-.475-.473v-3.94a1.971 1.971 0 0 1 .968-1.847l8.337-3.888a3.673 3.673 0 0 0 2.128-3.329v-1.099a.75.75 0 0 0-.295-.586 6.228 6.228 0 0 1-2.375-4.898v-3.708A6.231 6.231 0 0 1 21.003 6h7.665c-.813.596-1.433 1.395-1.433 2.849z"/>
</svg>
