<svg width="33" height="33" viewBox="-4 -4 33 33" id="ic-25-gnb-dark-contact-000000" x="33" y="363" xmlns="http://www.w3.org/2000/svg"><g fill="none" fill-rule="evenodd"><path d="M0 0h25v25H0z"/><path fill="currentColor" fill-opacity=".9" d="M19.997 18h-9.995L10 16.61c0-.291.14-.563.373-.728l3.377-2.09v-.777a2.603 2.603 0 01-1.25-2.231V9.591c0-1.428 1.121-2.59 2.5-2.591 1.379.001 2.5 1.163 2.5 2.591v1.193c0 .954-.507 1.78-1.25 2.231v.777l3.376 2.09a.893.893 0 01.374.728L19.997 18zM7 24h17V1H7v23zm-6 0h4V1H1v23z"/></g></svg>