<?xml version="1.0" encoding="utf-8"?>
<!-- Generator: Adobe Illustrator 20.1.0, SVG Export Plug-In . SVG Version: 6.00 Build 0)  -->
<svg version="1.1" id="Layer_1" xmlns="http://www.w3.org/2000/svg" xmlns:xlink="http://www.w3.org/1999/xlink" x="0px" y="0px"
	 viewBox="0 0 405.7 74" style="enable-background:new 0 0 405.7 74;" xml:space="preserve">
<style type="text/css">
	.st0{fill:#FFFFFF;}
</style>
<path class="st0" d="M398.6,0h-10h-8.1h-52.3h-0.2H7C2.4,0-1,4.3,0.2,8.8l15.7,57.8C17.1,71,21,74,25.6,74h330.6h14h10
	c4.5,0,8.5-3,9.7-7.4l15.7-57.8C406.6,4.3,403.3,0,398.6,0z"/>
<g>
	<g>
		<path class="st0" d="M379.8,66.5l15.7-57.8c0.3-1.2,0.3-2.2,0.1-3.3c-0.6-3.1-3.4-5.5-6.9-5.5h-60.4h-0.2H7C2.4,0-1,4.3,0.2,8.7
			l15.7,57.9C17.1,71,21,74,25.6,74h344.5C374.6,74,378.6,70.9,379.8,66.5z"/>
		<path d="M370.1,72H25.6c-3.6,0-6.8-2.4-7.7-5.9L2.2,8.2C1.8,6.7,2.1,5.2,3,4c1-1.2,2.4-2,4-2h320.9h0.2h60.4
			c2.4,0,4.4,1.6,4.9,3.9c0,0,0,0,0,0.1c0.2,0.8,0.2,1.5,0,2.3L377.8,66C376.9,69.5,373.7,72,370.1,72 M370.1,74
			c4.5,0,8.5-3.1,9.7-7.5l15.7-57.8c0.3-1.2,0.3-2.2,0.1-3.3c-0.6-3.1-3.4-5.5-6.9-5.5h-60.4h-0.2H7C2.4,0-1,4.3,0.2,8.7l15.7,57.9
			C17.1,71,21,74,25.6,74H370.1L370.1,74z"/>
	</g>
	<path d="M398.6,0h-6c4.6,0,8,4.3,6.8,8.7l-15.7,57.9c-1.2,4.4-5.1,7.4-9.7,7.4h6c4.5,0,8.5-3.1,9.7-7.5l15.7-57.8
		C406.6,4.3,403.3,0,398.6,0z"/>
</g>
</svg>
