<?xml version="1.0" encoding="utf-8"?>
<!-- Generator: Adobe Illustrator 20.1.0, SVG Export Plug-In . SVG Version: 6.00 Build 0)  -->
<svg version="1.1" id="레이어_1" xmlns="http://www.w3.org/2000/svg" xmlns:xlink="http://www.w3.org/1999/xlink" x="0px"
	 y="0px" viewBox="0 0 43 48" style="enable-background:new 0 0 43 48;" xml:space="preserve">
<g>
	<g>
		<path d="M21.5,2c0.7,0,1.3,0.2,1.9,0.5l15.7,9.1c1.2,0.7,1.9,1.9,1.9,3.3V33c0,1.4-0.7,2.6-1.9,3.3l-15.7,9.1
			c-0.6,0.3-1.2,0.5-1.9,0.5s-1.3-0.2-1.9-0.5L3.9,36.3C2.7,35.6,2,34.3,2,33V14.9c0-1.4,0.7-2.6,1.9-3.3l15.7-9.1
			C20.2,2.2,20.8,2,21.5,2 M21.5,0c-1,0-2,0.3-2.9,0.8L2.9,9.8c-1.8,1-2.9,3-2.9,5V33c0,2.1,1.1,4,2.9,5l15.7,9.1
			c0.9,0.5,1.9,0.8,2.9,0.8c1,0,2-0.3,2.9-0.8L40.1,38c1.8-1,2.9-3,2.9-5V14.9c0-2.1-1.1-4-2.9-5L24.4,0.8C23.5,0.3,22.5,0,21.5,0
			L21.5,0z"/>
	</g>
	<polygon points="26.4,16.6 22.9,13 21.5,11.6 20.1,13 16.6,16.6 18,18 21.5,14.4 25,18 	"/>
	<g>
		<path d="M15.4,25.2L13.9,32h-1.8l1.5-6.8h-2l0.3-1.6h5.8l-0.3,1.6H15.4z"/>
		<path d="M18.1,25.2c0.2-1.1,0.9-1.6,2-1.6h2.3c1.3,0,1.9,0.7,1.6,2.1l-1,4.8c-0.2,1.1-0.9,1.6-2,1.6h-2.3c-1.3,0-1.9-0.7-1.6-2.1
			L18.1,25.2z M19.2,30.5h1.8c0.2,0,0.3-0.1,0.4-0.3l1-4.7c0-0.2,0-0.3-0.2-0.3h-1.8c-0.2,0-0.3,0.1-0.4,0.3l-1,4.7
			C18.9,30.4,19,30.5,19.2,30.5z"/>
		<path d="M26.6,29L26,32h-1.8l1.8-8.4h3.8c1.3,0,1.9,0.7,1.6,2.1L31,27.4c-0.2,1.1-0.9,1.6-2,1.6H26.6z M27.4,25.2l-0.5,2.3h1.9
			c0.2,0,0.3-0.1,0.4-0.3l0.3-1.6c0-0.2,0-0.3-0.2-0.3H27.4z"/>
	</g>
</g>
</svg>
