<?xml version="1.0" encoding="utf-8"?>
<!-- Generator: Adobe Illustrator 20.1.0, SVG Export Plug-In . SVG Version: 6.00 Build 0)  -->
<svg version="1.1" id="레이어_1" xmlns="http://www.w3.org/2000/svg" xmlns:xlink="http://www.w3.org/1999/xlink" x="0px"
	 y="0px" viewBox="0 0 32 36" style="enable-background:new 0 0 32 36;" xml:space="preserve">
<style type="text/css">
	.st1{fill:#000;}
</style>
<path class="st0" d="M29.8,7.5L18.2,0.8c-0.7-0.4-1.4-0.6-2.2-0.6c-0.7,0-1.5,0.2-2.2,0.6L2.2,7.5C0.8,8.3,0,9.7,0,11.3v13.5
	c0,1.5,0.8,3,2.2,3.7l11.7,6.7c0.7,0.4,1.4,0.6,2.2,0.6s1.5-0.2,2.2-0.6l11.7-6.7c1.3-0.8,2.2-2.2,2.2-3.7V11.3
	C32,9.7,31.2,8.3,29.8,7.5z"/>
<polygon class="st1" points="16,15.9 12.1,12 10,14.1 13.9,18 10,21.9 12.1,24 16,20.1 19.9,24 22,21.9 18.1,18 22,14.1 19.9,12 "/>
</svg>
