<?xml version="1.0" encoding="utf-8"?>
<!-- Generator: Adobe Illustrator 20.1.0, SVG Export Plug-In . SVG Version: 6.00 Build 0)  -->
<svg version="1.1" id="Layer_1" xmlns="http://www.w3.org/2000/svg" xmlns:xlink="http://www.w3.org/1999/xlink" x="0px" y="0px"
	 viewBox="0 0 26 29.7" style="enable-background:new 0 0 26 29.7;" xml:space="preserve">
<style>
.st0{fill:#fff}
</style>
<path class="st0" d="M3.6,0C3.5,0,3.4,0,3.3,0C3.2,0,3.1,0.1,3.1,0.1c-2.5,1.2-2.9,4.4-3,5.3l0,0v17.9c0,0.2,0.1,0.3,0.3,0.3h6.2
	c0.2,0,0.3-0.1,0.3-0.3V5.4l0,0C6.8,4.5,6.4,1.1,3.6,0z M6.5,25.9H0.3C0.1,25.9,0,26,0,26.2v3.2c0,0.2,0.1,0.3,0.3,0.3h6.2
	c0.2,0,0.3-0.1,0.3-0.3v-3.2C6.8,26,6.7,25.9,6.5,25.9z M13.3,0c-0.1,0-0.2,0-0.4,0c-0.1,0-0.2,0.1-0.2,0.1c-2.5,1.2-2.9,4.4-3,5.3
	l0,0v17.9c0,0.2,0.1,0.3,0.3,0.3h6.2c0.2,0,0.3-0.1,0.3-0.3V5.4l0,0C16.4,4.5,16,1.1,13.3,0z M16.2,25.9H9.8c-0.2,0-0.3,0.1-0.3,0.3
	v3.2c0,0.2,0.1,0.3,0.3,0.3h6.2c0.2,0,0.3-0.1,0.3-0.3v-3.2C16.4,26,16.4,25.9,16.2,25.9z M26,5.4c-0.1-0.9-0.5-4.3-3.2-5.4
	c-0.1,0-0.2,0-0.4,0c-0.1,0-0.2,0.1-0.2,0.1c-2.5,1.2-2.9,4.4-3,5.3l0,0v17.9c0,0.2,0.1,0.3,0.3,0.3h6.2c0.2,0,0.3-0.1,0.3-0.3
	L26,5.4L26,5.4z M25.7,25.9h-6.2c-0.2,0-0.3,0.1-0.3,0.3v3.2c0,0.2,0.1,0.3,0.3,0.3h6.2c0.2,0,0.3-0.1,0.3-0.3v-3.2
	C26,26,25.9,25.9,25.7,25.9z"/>
</svg>
