<?xml version="1.0" encoding="utf-8"?>
<!-- Generator: Adobe Illustrator 20.1.0, SVG Export Plug-In . SVG Version: 6.00 Build 0)  -->
<svg version="1.1" id="Layer_1" xmlns="http://www.w3.org/2000/svg" xmlns:xlink="http://www.w3.org/1999/xlink" x="0px" y="0px"
	 viewBox="0 0 26 26" style="enable-background:new 0 0 26 26;" xml:space="preserve">
<style>
.st0{fill:#fff}
</style>
<path class="st0" d="M23.8,8.3h-6.1V2.2c0-1.2-1-2.2-2.2-2.2h-5.1C9.2,0,8.3,1,8.3,2.2v6.1H2.2C1,8.3,0,9.2,0,10.5v5.1c0,1.2,1,2.2,2.2,2.2h6.1
	v6.1c0,1.2,1,2.2,2.2,2.2h5.1c1.2,0,2.2-1,2.2-2.2v-6.1h6.1c1.2,0,2.2-1,2.2-2.2v-5.1C26,9.2,25,8.3,23.8,8.3z"/>
</svg>
