<?xml version="1.0" encoding="utf-8"?>
<!-- Generator: Adobe Illustrator 20.1.0, SVG Export Plug-In . SVG Version: 6.00 Build 0)  -->
<svg version="1.1" id="Layer_1" xmlns="http://www.w3.org/2000/svg" xmlns:xlink="http://www.w3.org/1999/xlink" x="0px" y="0px"
	 viewBox="0 0 26 33.3" style="enable-background:new 0 0 26 33.3;" xml:space="preserve">
<style>
.st0{fill:#fff}
</style>
<path class="st0" d="M3.4,6.7L3.4,6.7L3.4,6.7v0.3c0,2.4,2,4.3,4.3,4.3h10.7c2.4,0,4.3-2,4.3-4.3V6.7l0,0l0,0V2.3
	c0-1.1,0.2-2.3-2.1-2.2c-0.6,0-1,0.5-1,1.1v1c0,0.6-0.4,1-1,1h-1.1c-0.6,0-1-0.4-1-1V1c0-0.6-0.4-1-1-1h-4.8c-0.6,0-1,0.4-1,1v1.1
	c0,0.6-0.4,1-1,1H7.4c-0.6,0-1-0.4-1-1v-1c0-0.6-0.4-1.1-1-1.1C3-0.1,3.3,1.1,3.3,2.3L3.4,6.7L3.4,6.7z M23.8,26.9h-0.3
	c-0.1,0-0.1,0-0.2,0c-0.5-0.1-3.5-1-3.8-7.2v-0.1v-4.2c0-0.8-0.7-1.5-1.5-1.5H7.9c-0.8,0-1.5,0.7-1.5,1.5v4.2v0.1
	c-0.3,6.2-3.3,7.1-3.8,7.2c-0.1,0-0.1,0-0.2,0H2.2C1,26.9,0,27.8,0,29v2.1c0,1.2,1,2.2,2.2,2.2h21.7c1.2,0,2.2-1,2.2-2.2V29
	C26,27.8,25,26.9,23.8,26.9z"/>
</svg>
