<svg xmlns="http://www.w3.org/2000/svg" xmlns:xlink="http://www.w3.org/1999/xlink" width="31" height="31" viewBox="0 0 31 31">
    <defs>
        <rect id="tuhra9zdla" width="31" height="31" x="0" y="0" rx="9.36"/>
    </defs>
    <g fill="none" fill-rule="evenodd">
        <g>
            <g>
                <g>
                    <g transform="translate(-1307 -1292) translate(1307 1251) translate(0 41)">
                        <use fill="#00CA70" xlink:href="#tuhra9zdla"/>
                    </g>
                    <g fill="#FFF">
                        <g>
                            <g>
                                <g>
                                    <path d="M0 .183v6.71h1.537v-.472c.339.382.84.613 1.527.613 1.343 0 2.45-1.157 2.45-2.657S4.407 1.72 3.064 1.72c-.686 0-1.188.232-1.527.614V.184H0zm1.437 4.194c0-.816.555-1.328 1.32-1.328s1.32.512 1.32 1.328c0 .817-.555 1.33-1.32 1.33s-1.32-.513-1.32-1.33zM8.944 4.377c0 1.5 1.209 2.657 2.715 2.657 1.507 0 2.716-1.157 2.716-2.657S13.166 1.72 11.66 1.72c-1.506 0-2.715 1.158-2.715 2.657m1.44 0c0-.773.555-1.285 1.275-1.285.721 0 1.276.512 1.276 1.285 0 .774-.555 1.286-1.276 1.286-.72 0-1.275-.512-1.275-1.286M15.099 4.277c0 1.389 1.066 2.556 2.521 2.556.666 0 1.158-.241 1.496-.654v.463c0 .715-.44 1.077-1.158 1.077h-.05-.001v1.328c1.363 0 2.706-.714 2.706-2.405v-4.78h-1.497v.513c-.338-.413-.83-.655-1.496-.655-1.455 0-2.521 1.168-2.521 2.557m1.435 0c0-.752.555-1.264 1.342-1.264.788 0 1.342.512 1.342 1.264 0 .751-.554 1.263-1.342 1.263-.787 0-1.342-.512-1.342-1.263M5.655 0v1.36c.528.1.842.457.842 1.064v4.47h1.536v-4.47C8.033.86 6.903.119 5.655 0z" transform="translate(-1307 -1292) translate(1307 1251) translate(0 41) translate(4.65 10.333) translate(.207) translate(0 .18) translate(.39 .326)"/>
                                </g>
                            </g>
                        </g>
                    </g>
                </g>
            </g>
        </g>
    </g>
</svg>
