<svg xmlns="http://www.w3.org/2000/svg" xmlns:xlink="http://www.w3.org/1999/xlink" width="31" height="31" viewBox="0 0 31 31">
    <defs>
        <rect id="83l85x50ta" width="31" height="31" x="0" y="0" rx="7.56"/>
    </defs>
    <g fill="none" fill-rule="evenodd">
        <g>
            <g>
                <g>
                    <g transform="translate(-1553 -1292) translate(1307 1251) translate(246 41)">
                        <use fill="red" xlink:href="#83l85x50ta"/>
                    </g>
                    <path fill="#FFF" d="M15.89 9.302c1.226.008 4.996.06 6.07.368.712.204 1.272.804 1.463 1.567.32 1.282.343 3.86.345 4.221v.085c-.002.362-.025 2.94-.345 4.222-.19.762-.751 1.363-1.462 1.566-1.147.33-5.36.366-6.281.37h-.358c-.922-.004-5.135-.04-6.281-.37-.712-.203-1.272-.804-1.462-1.566-.296-1.184-.339-3.471-.345-4.1v-.328c.006-.63.049-2.916.345-4.1.19-.763.75-1.363 1.462-1.567 1.074-.308 4.844-.36 6.07-.368zm-2.455 4.133v4.133l4.65-2.067-4.65-2.066z" transform="translate(-1553 -1292) translate(1307 1251) translate(246 41)"/>
                </g>
            </g>
        </g>
    </g>
</svg>
