<svg xmlns="http://www.w3.org/2000/svg" xmlns:xlink="http://www.w3.org/1999/xlink" width="31" height="31" viewBox="0 0 31 31">
    <defs>
        <rect id="2xkkwa9s2a" width="31" height="31" x="0" y="0" rx="7.56"/>
        <path id="brf012kb0b" d="M9.205 3.857V6.07c0 1.55-1.268 2.805-2.832 2.805-1.564 0-2.832-1.256-2.832-2.805V3.857"/>
    </defs>
    <g fill="none" fill-rule="evenodd">
        <g>
            <g>
                <g>
                    <g transform="translate(-1430 -1292) translate(1307 1251) translate(123 41)">
                        <use fill="#F5A623" xlink:href="#2xkkwa9s2a"/>
                    </g>
                    <g>
                        <g>
                            <g stroke-linecap="round" stroke-linejoin="round">
                                <path stroke="#F5A623" stroke-width="1.57" d="M0 1.052L12.746 1.052" transform="translate(-1430 -1292) translate(1307 1251) translate(123 41) translate(7.154 3.577) translate(.765 .245) translate(.91)"/>
                                <g transform="translate(-1430 -1292) translate(1307 1251) translate(123 41) translate(7.154 3.577) translate(.765 .245) translate(.91) rotate(-180 6.373 6.366)">
                                    <use stroke="#F5A623" stroke-width="3.392" xlink:href="#brf012kb0b"/>
                                    <use stroke="#FFF" stroke-width="1.938" xlink:href="#brf012kb0b"/>
                                </g>
                            </g>
                            <path fill="#FFF" stroke="#FFF" stroke-width=".969" d="M13.212 8.375l.826 9.551H.528l.827-9.551h11.857z" transform="translate(-1430 -1292) translate(1307 1251) translate(123 41) translate(7.154 3.577) translate(.765 .245)"/>
                        </g>
                    </g>
                </g>
            </g>
        </g>
    </g>
</svg>
