<svg xmlns="http://www.w3.org/2000/svg" xmlns:xlink="http://www.w3.org/1999/xlink" width="31" height="31" viewBox="0 0 31 31">
    <defs>
        <path id="n811ou9q9a" d="M0 0.056L5.437 0.056 5.437 12.877 0 12.877z"/>
    </defs>
    <g fill="none" fill-rule="evenodd">
        <g>
            <g>
                <g transform="translate(-1512 -1292) translate(1307 1251) translate(205 41)">
                    <rect width="31" height="31" fill="#F4361E" rx="7.56"/>
                    <g>
                        <path fill="#FDFDFD" d="M10.595 0L8.365 2.174 9.48 3.262 11.71 1.087zM14.319 4.077L14.319 16.486 18.915 16.486 18.915 14.671 16.286 14.671 16.286 4.077zM7.598 4.077L7.598 16.486 12.194 16.486 12.194 14.671 9.565 14.671 9.565 11.086 11.765 11.086 11.765 9.312 9.565 9.312 9.565 5.913 11.937 5.913 12.194 4.077z" transform="translate(5.962 5.962)"/>
                        <g transform="translate(5.962 5.962) translate(0 3.815)">
                            <mask id="x2cpe1o5db" fill="#fff">
                                <use xlink:href="#n811ou9q9a"/>
                            </mask>
                            <path fill="#FDFDFD" d="M5.437 3.526v-.873c0-.373-.034-.72-.127-1.038-.092-.32-.22-.593-.433-.822C4.664.565 4.4.385 4.052.253 3.703.121 3.276.056 2.75.056S1.787.12 1.439.253.81.565.597.793c-.213.23-.366.503-.458.822C.046 1.933 0 2.28 0 2.653v.221c0 .735.085 1.32.256 1.756.17.437.387.797.65 1.081.263.284.547.53.853.738.305.208.59.443.852.707.263.263.48.595.65.997.081.19.142.412.185.662.047.277.071.589.071.938v.525c0 .25-.053.458-.16.624-.106.167-.309.263-.607.263-.284 0-.489-.096-.603-.263-.113-.166-.18-.374-.18-.623v-1.09L0 9.453v.847c0 .374.046.72.139 1.039.092.319.245.592.458.821.213.228.494.405.842.53s.785.187 1.31.187c.527 0 .954-.062 1.303-.187.348-.125.612-.317.825-.546.213-.228.34-.495.433-.814.093-.319.127-.658.127-1.032v-.586c0-.597-.047-1.5-.218-2.006-.17-.505-.363-.917-.625-1.236-.263-.319-.548-.582-.853-.79-.306-.208-.59-.426-.853-.655-.263-.228-.48-.509-.65-.842-.17-.332-.27-.79-.27-1.371v-.159c0-.249.066-.458.18-.617.113-.16.318-.248.602-.248.299 0 .5.089.607.248.107.16.16.368.16.617v1.14l1.92-.267z" mask="url(#x2cpe1o5db)"/>
                        </g>
                    </g>
                </g>
            </g>
        </g>
    </g>
</svg>
