<svg xmlns="http://www.w3.org/2000/svg" xmlns:xlink="http://www.w3.org/1999/xlink" width="31" height="31" viewBox="0 0 31 31">
    <defs>
        <rect id="hqulgs5uda" width="31" height="31" x="0" y="0" rx="7.56"/>
    </defs>
    <g fill="none" fill-rule="evenodd">
        <g>
            <g>
                <g>
                    <g transform="translate(-1471 -1292) translate(1307 1251) translate(164 41)">
                        <use fill="#54F7FF" xlink:href="#hqulgs5uda"/>
                    </g>
                    <path fill="#46465A" d="M18.62 13.482c.738.183.882.906.76 1.364l-.967 3.542c-.16.583-.693.947-1.216.828-.276-.063-.583-.283-.725-.648.598-.401 1.013-1.117 1.04-1.933.017-.47-.121-.921-.387-1.301l.28-1.025c.139-.508.633-.971 1.215-.827m-8.56-5.377c.581-.13 1.169.26 1.34.892l1.15 4.147c.22.71.84.69.84.69s.616.03.84-.69l1.151-4.146c.171-.632.762-1.029 1.339-.893.867.204.975 1.075.851 1.487l-1.35 5c-.255-.11-.528-.17-.806-.17h-4.902l-1.304-4.83c-.16-.595.152-1.33.852-1.487m-.44 11.137v-2.687c0-.612.483-1.034.985-1.034h4.809c.185 0 1.051.123 1.051 1.146s-.867 1.145-1.087 1.145h-2.752c-.289 0-.523.246-.523.55 0 .304.234.55.523.55h.293c.749 0 1.335.64 1.335 1.459v.575c0 .304.235.55.523.55.29 0 .524-.246.524-.55v-.575c0-.547-.151-1.048-.413-1.46h.587c.29.83.937 1.245 1.498 1.38.87.208 1.665-.249 2.063-.785.215.265.49.434.802.556-.444 2.368-2.47 4.054-5.073 4.054-3.466 0-5.145-2.86-5.145-4.874m10.72-.168c-.622-.15-.812-.815-.705-1.175.006-.02.53-1.947.539-1.972.145-.42.548-.795 1.076-.678.674.149.805.895.689 1.237l-.501 1.835c-.108.395-.525.891-1.097.753m3.151-4.533c-.595-1.045-1.458-1.5-2.634-1.384-.199-.53-.712-1.326-1.742-1.537l.384-1.42c.251-.823.14-1.79-.298-2.59-.445-.813-1.175-1.37-2.056-1.572-1.615-.37-3.242.677-3.705 2.382l-.052.249-.052-.25c-.466-1.712-2.095-2.758-3.709-2.38-.867.202-1.587.745-2.029 1.527-.44.782-.564 1.756-.33 2.603l1.145 4.238c-.517.579-.81 1.35-.81 2.148l.001 2.713v.01c.102 3.963 3.187 6.953 7.175 6.953 1.674 0 3.234-.538 4.51-1.554 1.207-.96 2.073-2.31 2.454-3.817.725-.347 1.193-.983 1.467-1.984l.501-1.836c.187-.694.228-1.714-.22-2.499" transform="translate(-1471 -1292) translate(1307 1251) translate(164 41)"/>
                </g>
            </g>
        </g>
    </g>
</svg>
