<svg xmlns="http://www.w3.org/2000/svg" xmlns:xlink="http://www.w3.org/1999/xlink" width="31" height="31" viewBox="0 0 31 31">
    <defs>
        <rect id="c5fspkwpza" width="31" height="31" x="0" y="0" rx="7.56"/>
    </defs>
    <g fill="none" fill-rule="evenodd">
        <g>
            <g>
                <g transform="translate(-1635 -1292) translate(1307 1251) translate(328 41)">
                    <mask id="qwfbzox6sb" fill="#fff">
                        <use xlink:href="#c5fspkwpza"/>
                    </mask>
                    <use fill="#1DA1F2" xlink:href="#c5fspkwpza"/>
                    <path fill="#FFF" d="M22.065 12.472c0-.144-.003-.287-.01-.43.633-.468 1.182-1.053 1.616-1.718-.58.264-1.205.442-1.86.522.669-.41 1.182-1.06 1.424-1.836-.626.38-1.318.657-2.056.806-.59-.645-1.432-1.049-2.363-1.049-1.788 0-3.238 1.487-3.238 3.32 0 .26.028.513.084.756-2.69-.138-5.077-1.46-6.673-3.468-.279.49-.439 1.06-.439 1.668 0 1.152.572 2.17 1.44 2.764-.53-.017-1.03-.167-1.465-.415l-.001.042c0 1.608 1.116 2.95 2.597 3.255-.272.075-.558.116-.853.116-.209 0-.412-.02-.609-.06.412 1.32 1.607 2.28 3.025 2.306-1.109.89-2.504 1.421-4.021 1.421-.262 0-.52-.015-.773-.046 1.433.942 3.134 1.491 4.963 1.491 5.955 0 9.212-5.058 9.212-9.445z" mask="url(#qwfbzox6sb)"/>
                </g>
            </g>
        </g>
    </g>
</svg>
