<svg xmlns="http://www.w3.org/2000/svg" xmlns:xlink="http://www.w3.org/1999/xlink" width="31" height="31" viewBox="0 0 31 31">
    <defs>
        <linearGradient id="5udw3cs2fb" x1="19.664%" x2="75.699%" y1="90.943%" y2="11.757%">
            <stop offset="0%" stop-color="#FEC45C"/>
            <stop offset="51.452%" stop-color="#EE4B4C"/>
            <stop offset="100%" stop-color="#A532B1"/>
        </linearGradient>
        <circle id="izf9djycrc" cx="15.5" cy="15.5" r="15.5"/>
        <rect id="bu6aaqu27a" width="31" height="31" x="0" y="0" rx="7.56"/>
        <path id="lrdipjy1le" d="M0 0.006L17.561 0.006 17.561 17.66 0 17.66z"/>
    </defs>
    <g fill="none" fill-rule="evenodd">
        <g>
            <g>
                <g transform="translate(-1594 -1292) translate(1307 1251) translate(287 41)">
                    <use fill="url(#5udw3cs2fb)" xlink:href="#bu6aaqu27a"/>
                    <mask id="8v2lpk1rvd" fill="#fff">
                        <use xlink:href="#izf9djycrc"/>
                    </mask>
                    <use fill="url(#5udw3cs2fb)" xlink:href="#izf9djycrc"/>
                    <g mask="url(#8v2lpk1rvd)">
                        <g transform="translate(6.717 6.631)">
                            <mask id="0ves8p744f" fill="#fff">
                                <use xlink:href="#lrdipjy1le"/>
                            </mask>
                            <path fill="#FFF" d="M8.78.006c-2.384 0-2.683.01-3.62.053-.934.043-1.573.192-2.131.41-.577.226-1.067.527-1.555 1.018-.488.49-.789.983-1.013 1.564-.217.561-.366 1.203-.408 2.142C.01 6.135 0 6.435 0 8.833c0 2.397.01 2.697.053 3.639.042.94.19 1.581.408 2.143.224.58.525 1.072 1.013 1.563.488.49.978.793 1.555 1.018.558.218 1.197.368 2.131.41.937.043 1.236.054 3.62.054 2.385 0 2.684-.01 3.62-.053.935-.043 1.574-.193 2.132-.41.578-.226 1.067-.528 1.555-1.019.489-.49.789-.983 1.013-1.563.217-.562.366-1.204.408-2.143.043-.942.053-1.242.053-3.64 0-2.397-.01-2.697-.053-3.639-.042-.94-.19-1.581-.408-2.142-.224-.58-.524-1.073-1.013-1.564C15.6.997 15.11.695 14.532.47c-.558-.218-1.197-.367-2.131-.41-.937-.043-1.236-.053-3.62-.053m0 1.59c2.344 0 2.622.009 3.548.051.856.04 1.32.184 1.63.304.41.16.702.352 1.01.66.307.31.497.604.657 1.016.12.31.263.778.302 1.639.042.93.051 1.21.051 3.567s-.009 2.636-.051 3.566c-.04.861-.182 1.328-.302 1.64-.16.412-.35.706-.657 1.014-.308.31-.6.5-1.01.66-.31.122-.774.265-1.63.305-.926.042-1.204.051-3.548.051-2.345 0-2.623-.009-3.549-.051-.856-.04-1.32-.183-1.63-.304-.41-.16-.702-.352-1.01-.66-.307-.31-.497-.603-.656-1.015-.12-.312-.264-.779-.303-1.64-.042-.93-.05-1.21-.05-3.566 0-2.357.008-2.637.05-3.567.04-.86.182-1.328.303-1.64.159-.411.35-.705.656-1.014.308-.31.6-.5 1.01-.66.31-.121.774-.265 1.63-.305.926-.042 1.204-.051 3.549-.051" mask="url(#0ves8p744f)"/>
                        </g>
                    </g>
                    <path fill="#FFF" d="M15.497 18.406c-1.616 0-2.927-1.317-2.927-2.942 0-1.625 1.31-2.942 2.927-2.942s2.927 1.317 2.927 2.942c0 1.625-1.31 2.942-2.927 2.942m0-7.475c-2.49 0-4.509 2.03-4.509 4.533 0 2.503 2.019 4.533 4.51 4.533 2.49 0 4.508-2.03 4.508-4.533 0-2.503-2.019-4.533-4.509-4.533M21.238 10.752c0 .585-.472 1.06-1.054 1.06-.582 0-1.053-.475-1.053-1.06 0-.585.471-1.06 1.053-1.06s1.054.475 1.054 1.06" mask="url(#8v2lpk1rvd)"/>
                </g>
            </g>
        </g>
    </g>
</svg>
